# xmcd
#
# Track frame offsets: 
#        150
#        13366
#        25082
#        38592
#        49210
#        66364
#        79708
#        95208
#        111446
#        125040
#        142351
#        154351
#
# Disc length: 2297 seconds
#
# Revision: 0
# Processed by: cddbd v1.5.2PL0 Copyright (c) Steve Scherf et al.
# Submitted via: ExactAudioCopy v1.3
#
DISCID=b508f70c
DTITLE=Mac Powell - Southpaw
DYEAR=2017
DGENRE=Christian
TTITLE0=Red Boots
TTITLE1=Mountain
TTITLE2=Run Outta Love
TTITLE3=90 to Nothing
TTITLE4=Sittin' here Talking With You
TTITLE5=Hard Headed Woman
TTITLE6=Oh Marie
TTITLE7=More Than Me
TTITLE8=Runnaway Train
TTITLE9=Everything to Me
TTITLE10=Summer Lovin'
TTITLE11=I've Always Loved You
EXTD=
EXTT0=
EXTT1=
EXTT2=
EXTT3=
EXTT4=
EXTT5=
EXTT6=
EXTT7=
EXTT8=
EXTT9=
EXTT10=
EXTT11=
PLAYORDER=
